<mxfile host="app.diagrams.net" agent="Mozilla/5.0 (Windows NT 10.0; Win64; x64; rv:131.0) Gecko/20100101 Firefox/131.0" version="25.0.3">
  <diagram name="Page-1" id="-v9vMiWLbruMC3JT5Wzo">
    <mxGraphModel dx="1606" dy="394" grid="1" gridSize="10" guides="1" tooltips="1" connect="1" arrows="1" fold="1" page="1" pageScale="1" pageWidth="850" pageHeight="1100" math="0" shadow="0">
      <root>
        <mxCell id="0" />
        <mxCell id="1" parent="0" />
        <mxCell id="dqyYU5-jqCxpDy0FOYdZ-4" value="" style="rounded=0;whiteSpace=wrap;html=1;" parent="1" vertex="1">
          <mxGeometry x="-230" y="220" width="530" height="350" as="geometry" />
        </mxCell>
        <mxCell id="dqyYU5-jqCxpDy0FOYdZ-5" value="" style="endArrow=none;html=1;rounded=0;exitX=0.002;exitY=0.063;exitDx=0;exitDy=0;exitPerimeter=0;" parent="1" edge="1">
          <mxGeometry width="50" height="50" relative="1" as="geometry">
            <mxPoint x="-228.94000000000005" y="245.04999999999995" as="sourcePoint" />
            <mxPoint x="300" y="245" as="targetPoint" />
          </mxGeometry>
        </mxCell>
        <mxCell id="dqyYU5-jqCxpDy0FOYdZ-6" value="Image will be displayed here" style="rounded=0;whiteSpace=wrap;html=1;" parent="1" vertex="1">
          <mxGeometry x="-25" y="261" width="310" height="220" as="geometry" />
        </mxCell>
        <mxCell id="dqyYU5-jqCxpDy0FOYdZ-29" value="Choose Your Model" style="rounded=1;fillColor=none;strokeColor=none;html=1;fontColor=#596780;align=left;fontSize=11;spacingLeft=10;fontSize=11" parent="1" vertex="1">
          <mxGeometry x="-210" y="250" width="120" height="20" as="geometry" />
        </mxCell>
        <mxCell id="dqyYU5-jqCxpDy0FOYdZ-30" value="" style="rounded=1;fillColor=#253858;strokeColor=none;html=1;" parent="1" vertex="1">
          <mxGeometry x="-210" y="270" width="170" height="33" as="geometry" />
        </mxCell>
        <mxCell id="dqyYU5-jqCxpDy0FOYdZ-31" value="" style="shape=triangle;direction=south;fillColor=#ffffff;strokeColor=none;html=1" parent="dqyYU5-jqCxpDy0FOYdZ-30" vertex="1">
          <mxGeometry x="1" y="0.5" width="12" height="6" relative="1" as="geometry">
            <mxPoint x="-20" y="-3" as="offset" />
          </mxGeometry>
        </mxCell>
        <mxCell id="dqyYU5-jqCxpDy0FOYdZ-32" value="&lt;div&gt;Image Generation&amp;nbsp;&lt;/div&gt;&lt;div&gt;Model&lt;/div&gt;" style="shape=mxgraph.ios7.icons.user;fillColor=#ffffff;strokeColor=#253858;html=1;fontColor=#ffffff;align=left;fontSize=12;spacingLeft=10;labelPosition=right;verticalLabelPosition=middle;verticalAlign=middle;" parent="dqyYU5-jqCxpDy0FOYdZ-30" vertex="1">
          <mxGeometry y="0.5" width="24" height="24" relative="1" as="geometry">
            <mxPoint x="10" y="-12" as="offset" />
          </mxGeometry>
        </mxCell>
        <mxCell id="dqyYU5-jqCxpDy0FOYdZ-33" value="" style="rounded=1;fillColor=#ffffff;strokeColor=#DFE1E5;shadow=1;html=1;arcSize=4" parent="1" vertex="1">
          <mxGeometry x="-210" y="306" width="160" height="111" as="geometry" />
        </mxCell>
        <mxCell id="dqyYU5-jqCxpDy0FOYdZ-34" value="" style="rounded=0;fillColor=#F4F5F7;strokeColor=none;shadow=0;html=1;align=left;fontSize=12;spacingLeft=10;fontColor=#253858;resizeWidth=1" parent="dqyYU5-jqCxpDy0FOYdZ-33" vertex="1">
          <mxGeometry width="160" height="33" relative="1" as="geometry">
            <mxPoint y="6" as="offset" />
          </mxGeometry>
        </mxCell>
        <mxCell id="dqyYU5-jqCxpDy0FOYdZ-35" value="SDXL Lightning" style="shape=mxgraph.ios7.icons.user;fillColor=#ffffff;strokeColor=#253858;html=1;fontColor=#253858;align=left;fontSize=12;spacingLeft=10;labelPosition=right;verticalLabelPosition=middle;verticalAlign=middle;" parent="dqyYU5-jqCxpDy0FOYdZ-34" vertex="1">
          <mxGeometry y="0.5" width="24" height="24" relative="1" as="geometry">
            <mxPoint x="10" y="-12" as="offset" />
          </mxGeometry>
        </mxCell>
        <mxCell id="dqyYU5-jqCxpDy0FOYdZ-36" value="" style="rounded=0;fillColor=none;strokeColor=none;shadow=0;html=1;align=left;fontSize=12;spacingLeft=10;fontColor=#253858;resizeWidth=1" parent="dqyYU5-jqCxpDy0FOYdZ-33" vertex="1">
          <mxGeometry width="160" height="33" relative="1" as="geometry">
            <mxPoint y="39" as="offset" />
          </mxGeometry>
        </mxCell>
        <mxCell id="dqyYU5-jqCxpDy0FOYdZ-37" value="Flux Schnell" style="shape=mxgraph.ios7.icons.user;fillColor=#ffffff;strokeColor=#253858;html=1;fontColor=#253858;align=left;fontSize=12;spacingLeft=10;labelPosition=right;verticalLabelPosition=middle;verticalAlign=middle;" parent="dqyYU5-jqCxpDy0FOYdZ-36" vertex="1">
          <mxGeometry y="0.5" width="24" height="24" relative="1" as="geometry">
            <mxPoint x="10" y="-12" as="offset" />
          </mxGeometry>
        </mxCell>
        <mxCell id="dqyYU5-jqCxpDy0FOYdZ-38" value="" style="rounded=0;fillColor=none;strokeColor=none;shadow=0;html=1;align=left;fontSize=12;spacingLeft=10;fontColor=#253858;resizeWidth=1" parent="dqyYU5-jqCxpDy0FOYdZ-33" vertex="1">
          <mxGeometry width="160" height="33" relative="1" as="geometry">
            <mxPoint y="72" as="offset" />
          </mxGeometry>
        </mxCell>
        <mxCell id="dqyYU5-jqCxpDy0FOYdZ-39" value="Dall E" style="shape=mxgraph.ios7.icons.user;fillColor=#ffffff;strokeColor=#253858;html=1;fontColor=#253858;align=left;fontSize=12;spacingLeft=10;labelPosition=right;verticalLabelPosition=middle;verticalAlign=middle;" parent="dqyYU5-jqCxpDy0FOYdZ-38" vertex="1">
          <mxGeometry y="0.5" width="24" height="24" relative="1" as="geometry">
            <mxPoint x="10" y="-12" as="offset" />
          </mxGeometry>
        </mxCell>
        <mxCell id="dqyYU5-jqCxpDy0FOYdZ-41" value="&lt;div align=&quot;left&quot;&gt;Image Prompt will be entered here&lt;br&gt;&lt;/div&gt;" style="rounded=0;whiteSpace=wrap;html=1;" parent="1" vertex="1">
          <mxGeometry x="-212.5" y="500" width="495" height="60" as="geometry" />
        </mxCell>
        <mxCell id="dqyYU5-jqCxpDy0FOYdZ-42" value="Enter Image Prompt" style="rounded=1;fillColor=none;strokeColor=none;html=1;fontColor=#596780;align=left;fontSize=11;spacingLeft=10;fontSize=11" parent="1" vertex="1">
          <mxGeometry x="-220" y="480" width="120" height="20" as="geometry" />
        </mxCell>
        <mxCell id="dqyYU5-jqCxpDy0FOYdZ-46" value="" style="shape=image;html=1;verticalAlign=top;verticalLabelPosition=bottom;labelBackgroundColor=#ffffff;imageAspect=0;aspect=fixed;image=https://cdn1.iconfinder.com/data/icons/unicons-line-vol-4/24/image-download-128.png" parent="1" vertex="1">
          <mxGeometry x="260" y="456" width="21" height="21" as="geometry" />
        </mxCell>
        <mxCell id="dqyYU5-jqCxpDy0FOYdZ-50" value="" style="group" parent="1" vertex="1" connectable="0">
          <mxGeometry x="280" y="227" width="10" height="10" as="geometry" />
        </mxCell>
        <mxCell id="dqyYU5-jqCxpDy0FOYdZ-48" value="" style="endArrow=none;html=1;rounded=0;movable=1;resizable=1;rotatable=1;deletable=1;editable=1;locked=0;connectable=1;" parent="dqyYU5-jqCxpDy0FOYdZ-50" edge="1">
          <mxGeometry width="50" height="50" relative="1" as="geometry">
            <mxPoint y="10" as="sourcePoint" />
            <mxPoint x="10" as="targetPoint" />
          </mxGeometry>
        </mxCell>
        <mxCell id="dqyYU5-jqCxpDy0FOYdZ-49" value="" style="endArrow=none;html=1;rounded=0;movable=1;resizable=1;rotatable=1;deletable=1;editable=1;locked=0;connectable=1;" parent="dqyYU5-jqCxpDy0FOYdZ-50" edge="1">
          <mxGeometry width="50" height="50" relative="1" as="geometry">
            <mxPoint as="sourcePoint" />
            <mxPoint x="10" y="10" as="targetPoint" />
          </mxGeometry>
        </mxCell>
        <mxCell id="dqyYU5-jqCxpDy0FOYdZ-53" value="" style="group" parent="1" vertex="1" connectable="0">
          <mxGeometry x="255" y="225" width="15" height="17" as="geometry" />
        </mxCell>
        <mxCell id="dqyYU5-jqCxpDy0FOYdZ-52" value="" style="whiteSpace=wrap;html=1;aspect=fixed;" parent="dqyYU5-jqCxpDy0FOYdZ-53" vertex="1">
          <mxGeometry x="1.6666666666666665" width="12.12121212121212" height="12.12121212121212" as="geometry" />
        </mxCell>
        <mxCell id="dqyYU5-jqCxpDy0FOYdZ-51" value="" style="whiteSpace=wrap;html=1;aspect=fixed;" parent="dqyYU5-jqCxpDy0FOYdZ-53" vertex="1">
          <mxGeometry y="1.7191011235955056" width="12.12121212121212" height="12.12121212121212" as="geometry" />
        </mxCell>
        <mxCell id="dqyYU5-jqCxpDy0FOYdZ-54" value="" style="endArrow=none;html=1;rounded=0;exitX=0.868;exitY=0.04;exitDx=0;exitDy=0;exitPerimeter=0;" parent="1" edge="1">
          <mxGeometry width="50" height="50" relative="1" as="geometry">
            <mxPoint x="230.03999999999996" y="232" as="sourcePoint" />
            <mxPoint x="244" y="232" as="targetPoint" />
          </mxGeometry>
        </mxCell>
        <mxCell id="dqyYU5-jqCxpDy0FOYdZ-57" value="&lt;font face=&quot;Helvetica&quot;&gt;InstaVision&lt;/font&gt;" style="text;html=1;align=center;verticalAlign=middle;whiteSpace=wrap;rounded=0;" parent="1" vertex="1">
          <mxGeometry x="-224" y="223.5" width="60" height="20" as="geometry" />
        </mxCell>
        <mxCell id="yZ_yd-LJz6eWc_nziO3o-2" value="Generate" style="rounded=1;fillColor=#0057D8;strokeColor=none;html=1;whiteSpace=wrap;fontColor=#ffffff;align=center;verticalAlign=middle;fontStyle=0;fontSize=12;sketch=0;" vertex="1" parent="1">
          <mxGeometry x="-173" y="440" width="86" height="33" as="geometry" />
        </mxCell>
      </root>
    </mxGraphModel>
  </diagram>
</mxfile>
